<svg width="154" height="40" viewBox="0 0 154 40" fill="none" xmlns="http://www.w3.org/2000/svg">
<path fill-rule="evenodd" clip-rule="evenodd" d="M17.1412 28.0834C19.3526 28.0834 21.5144 27.4331 23.3531 26.2149C25.1918 24.9967 26.6249 23.2651 27.4711 21.2393C28.3174 19.2135 28.5388 16.9843 28.1074 14.8337C27.676 12.6831 26.6111 10.7078 25.0474 9.15729C23.4837 7.60679 21.4914 6.55089 19.3225 6.12311C17.1536 5.69533 14.9055 5.91485 12.8624 6.75397C10.8193 7.5931 9.07324 9.01411 7.84466 10.8373C6.61607 12.6605 5.96027 14.8039 5.96027 16.9966C5.96027 19.937 7.13829 22.757 9.23513 24.8362C11.332 26.9153 14.1758 28.0834 17.1412 28.0834ZM17.111 33.9333C20.4953 33.9333 23.8038 32.9381 26.6178 31.0736C29.4317 29.2092 31.6248 26.5592 32.9198 23.4587C34.2148 20.3583 34.5535 16.9466 33.893 13.6553C33.2325 10.364 31.6025 7.34103 29.2091 4.96833C26.8158 2.59563 23.7665 0.979873 20.4471 0.325586C17.1276 -0.3287 13.6872 0.00786814 10.5606 1.29255C7.43403 2.57722 4.76184 4.75228 2.88206 7.54287C1.00228 10.3335 -0.000664577 13.6141 3.30388e-07 16.97C2.87008e-07 19.1979 0.442541 21.404 1.30249 23.4623C2.16244 25.5206 3.42289 27.3908 5.01184 28.966C6.60079 30.5413 8.48708 31.7907 10.5631 32.643C12.639 33.4953 14.8641 33.9338 17.111 33.9333ZM47.7023 10.5634C47.7023 9.79514 47.3945 9.05827 46.8467 8.51504C46.2988 7.97181 45.5558 7.66673 44.7811 7.66673C44.0063 7.66673 43.2631 7.97181 42.7153 8.51504C42.1674 9.05827 41.8598 9.79514 41.8598 10.5634V21.7833C41.8598 29.2999 46.8619 33.8401 53.9147 33.8401C60.9676 33.8401 65.9697 29.2999 65.9697 21.7833V10.58V10.5634C65.9697 9.79514 65.662 9.05827 65.1142 8.51504C64.5663 7.97181 63.8232 7.66673 63.0484 7.66673C62.2736 7.66673 61.5307 7.97181 60.9828 8.51504C60.435 9.05827 60.1271 9.79514 60.1271 10.5634V21.5634C60.1271 25.8967 57.7067 28.3467 53.9147 28.3467C50.1765 28.3467 47.7023 25.8934 47.7023 21.5634V10.5634ZM93.0852 24.8834C92.4751 24.5393 91.7535 24.4454 91.0745 24.6216C90.3956 24.7979 89.813 25.2304 89.4511 25.8267C88.1367 27.6401 85.955 28.78 83.2186 28.78C79.1106 28.78 76.159 26.38 75.4867 22.15H93.9558C94.2197 22.1607 94.4831 22.119 94.7305 22.0272C94.9779 21.9355 95.2043 21.7955 95.3963 21.6156C95.5883 21.4358 95.7422 21.2196 95.8487 20.9799C95.9552 20.7402 96.0124 20.4818 96.0166 20.22C96.0166 12.5533 90.5941 6.91006 82.9597 6.91006C75.5371 6.91006 69.6945 12.8067 69.6945 20.3767C69.6945 27.8934 75.5371 33.8433 83.2253 33.8433C85.2125 33.853 87.1774 33.4268 88.9791 32.5953C90.7807 31.7637 92.3746 30.5473 93.6465 29.0333C93.8062 28.8741 93.9442 28.6949 94.0567 28.5001C94.4124 27.8939 94.5108 27.1725 94.3305 26.4944C94.1503 25.8163 93.7059 25.2369 93.0952 24.8834H93.0852ZM82.9026 11.92C86.8492 11.92 89.5856 14.4267 90.0596 17.92H75.638C76.4885 14.1633 79.2788 11.92 82.9128 11.92H82.9026ZM111.894 33.8433C118.953 33.8433 123.949 29.3034 123.949 21.7867V10.5399C123.92 9.78825 123.598 9.07708 123.051 8.55638C122.503 8.03569 121.773 7.74622 121.014 7.74925C120.256 7.75228 119.528 8.04761 118.985 8.57266C118.442 9.09771 118.125 9.81148 118.103 10.5634C118.101 10.5945 118.101 10.6256 118.103 10.6566V21.5767C118.103 25.9101 115.679 28.3633 111.89 28.3633C108.102 28.3633 105.678 25.9101 105.678 21.5767V10.5399C105.649 9.78825 105.327 9.07708 104.78 8.55638C104.232 8.03569 103.502 7.74622 102.744 7.74925C101.985 7.75228 101.257 8.04761 100.714 8.57266C100.171 9.09771 99.8545 9.81148 99.832 10.5634C99.832 10.5967 99.832 10.63 99.832 10.6633V21.7867C99.8488 29.3034 104.851 33.8567 111.904 33.8567L111.894 33.8433ZM152.032 28.55L152.002 28.5867C151.896 28.7544 151.77 28.9098 151.629 29.05C150.355 30.5608 148.761 31.7738 146.959 32.6024C145.157 33.4311 143.194 33.8548 141.208 33.8433C133.523 33.8433 127.68 27.8934 127.68 20.3767C127.68 12.8067 133.523 6.91006 140.946 6.91006C148.58 6.91006 154.002 12.5466 154.002 20.22C153.998 20.4818 153.941 20.7402 153.835 20.9799C153.728 21.2196 153.574 21.4358 153.382 21.6156C153.19 21.7955 152.964 21.9355 152.716 22.0272C152.469 22.119 152.206 22.1607 151.942 22.15H133.469C134.141 26.38 137.103 28.78 141.201 28.78C143.954 28.78 146.143 27.63 147.457 25.8C147.508 25.72 147.561 25.64 147.619 25.5666L147.639 25.5367C148.057 25.012 148.66 24.6637 149.327 24.5616C149.994 24.4595 150.675 24.6112 151.233 24.9862C151.792 25.3613 152.187 25.9318 152.339 26.5836C152.491 27.2353 152.389 27.92 152.053 28.5001C152.042 28.5144 152.033 28.53 152.026 28.5466L152.032 28.55ZM148.049 17.9234C147.575 14.4267 144.838 11.9234 140.888 11.9234C137.258 11.9234 134.467 14.1667 133.624 17.9234H148.049Z" fill="white"/>
<path d="M26.5897 40.0063C25.9205 40.0072 25.2733 39.7697 24.766 39.337C24.2587 38.9043 23.9252 38.3052 23.8261 37.649C23.7271 36.9928 23.8693 36.3231 24.2266 35.7621C24.584 35.2012 25.1328 34.7863 25.7729 34.593C28.6933 33.7027 31.2142 31.8399 32.9097 29.3196C33.3232 28.716 33.9604 28.2987 34.6827 28.1588C35.4049 28.0188 36.1536 28.1675 36.7658 28.5724C37.3781 28.9772 37.8044 29.6056 37.9516 30.3206C38.0989 31.0355 37.9552 31.7791 37.5521 32.3896C35.142 35.9705 31.5597 38.6172 27.4099 39.8829C27.1443 39.9645 26.8678 40.0061 26.5897 40.0063Z" fill="white"/>
<path fill-rule="evenodd" clip-rule="evenodd" d="M17.1412 28.0893C19.3526 28.0893 21.5144 27.439 23.3531 26.2208C25.1918 25.0026 26.6249 23.271 27.4711 21.2452C28.3174 19.2194 28.5388 16.9902 28.1074 14.8396C27.6759 12.689 26.6111 10.7136 25.0474 9.16315C23.4837 7.61265 21.4914 6.55675 19.3225 6.12897C17.1536 5.70119 14.9055 5.92071 12.8624 6.75983C10.8193 7.59895 9.07323 9.01997 7.84465 10.8432C6.61607 12.6664 5.96027 14.8098 5.96027 17.0025C5.96027 19.9429 7.13828 22.7629 9.23512 24.842C11.332 26.9212 14.1758 28.0893 17.1412 28.0893ZM17.111 33.9392C20.4953 33.9392 23.8038 32.944 26.6177 31.0795C29.4317 29.215 31.6248 26.565 32.9198 23.4646C34.2148 20.3641 34.5535 16.9525 33.893 13.6612C33.2325 10.3699 31.6025 7.34688 29.2091 4.97419C26.8157 2.60149 23.7665 0.985732 20.447 0.331446C17.1276 -0.32284 13.6872 0.0137275 10.5606 1.29841C7.43403 2.58308 4.76183 4.75814 2.88206 7.54873C1.00228 10.3393 -0.000664577 13.62 3.30388e-07 16.9758C2.87007e-07 19.2038 0.442541 21.4099 1.30249 23.4682C2.16244 25.5265 3.42289 27.3967 5.01184 28.9719C6.60078 30.5471 8.48707 31.7965 10.5631 32.6488C12.639 33.5011 14.8641 33.9396 17.111 33.9392Z" fill="white"/>
</svg>
