<svg width="119" height="31" viewBox="0 0 119 31" fill="none" xmlns="http://www.w3.org/2000/svg">
<path fill-rule="evenodd" clip-rule="evenodd" d="M13.1816 21.5004C14.8822 21.5004 16.5446 21.0026 17.9586 20.0699C19.3725 19.1373 20.4746 17.8116 21.1254 16.2607C21.7761 14.7097 21.9464 13.0031 21.6146 11.3566C21.2829 9.71011 20.464 8.19781 19.2615 7.01076C18.059 5.82371 16.5269 5.01532 14.859 4.68781C13.1912 4.3603 11.4623 4.52836 9.89121 5.17079C8.3201 5.81322 6.97734 6.90114 6.03256 8.29696C5.08777 9.69279 4.58346 11.3338 4.58346 13.0125C4.58346 15.2636 5.48936 17.4226 7.10183 19.0144C8.71431 20.6062 10.9012 21.5004 13.1816 21.5004ZM13.1584 25.9791C15.761 25.9791 18.3052 25.2172 20.4691 23.7897C22.633 22.3623 24.3195 20.3335 25.3154 17.9598C26.3112 15.5862 26.5717 12.9742 26.0638 10.4544C25.5558 7.93463 24.3024 5.62024 22.4619 3.80372C20.6214 1.9872 18.2765 0.750183 15.7238 0.249267C13.1712 -0.25165 10.5255 0.00602379 8.12112 0.989564C5.71678 1.9731 3.66186 3.63831 2.21631 5.77477C0.770757 7.91122 -0.000511061 10.4229 2.54069e-07 12.9921C2.20709e-07 14.6978 0.340315 16.3867 1.00162 17.9626C1.66292 19.5384 2.63221 20.9702 3.85412 22.1762C5.07602 23.3822 6.52658 24.3387 8.12301 24.9912C9.71945 25.6437 11.4305 25.9794 13.1584 25.9791ZM36.6832 8.08725C36.6832 7.49908 36.4465 6.93495 36.0252 6.51905C35.6039 6.10316 35.0325 5.8696 34.4367 5.8696C33.8409 5.8696 33.2694 6.10316 32.8481 6.51905C32.4268 6.93495 32.1902 7.49908 32.1902 8.08725V16.6771C32.1902 22.4318 36.0369 25.9077 41.4605 25.9077C46.8842 25.9077 50.7308 22.4318 50.7308 16.6771V8.09996V8.08725C50.7308 7.49908 50.4942 6.93495 50.0729 6.51905C49.6516 6.10316 49.0802 5.8696 48.4844 5.8696C47.8886 5.8696 47.3172 6.10316 46.8959 6.51905C46.4746 6.93495 46.2379 7.49908 46.2379 8.08725V16.5088C46.2379 19.8263 44.3766 21.7021 41.4605 21.7021C38.5859 21.7021 36.6832 19.8238 36.6832 16.5088V8.08725ZM71.5827 19.0505C71.1135 18.7871 70.5586 18.7152 70.0365 18.8502C69.5144 18.9851 69.0663 19.3162 68.7881 19.7728C67.7773 21.161 66.0995 22.0338 63.9952 22.0338C60.8362 22.0338 58.5664 20.1963 58.0494 16.9579H72.2522C72.4551 16.9661 72.6577 16.9342 72.848 16.8639C73.0382 16.7936 73.2123 16.6865 73.36 16.5488C73.5076 16.4111 73.6259 16.2455 73.7078 16.062C73.7897 15.8785 73.8337 15.6807 73.837 15.4803C73.837 9.61071 69.667 5.29029 63.7962 5.29029C58.0882 5.29029 53.5952 9.80471 53.5952 15.6002C53.5952 21.355 58.0882 25.9102 64.0004 25.9102C65.5286 25.9176 67.0396 25.5914 68.4251 24.9547C69.8106 24.3181 71.0362 23.3868 72.0144 22.2277C72.1372 22.1058 72.2433 21.9686 72.3298 21.8194C72.6033 21.3554 72.679 20.803 72.5404 20.2839C72.4017 19.7647 72.0601 19.3212 71.5904 19.0505H71.5827ZM63.7523 9.12586C66.7872 9.12586 68.8915 11.0449 69.256 13.7194H58.1658C58.8198 10.8433 60.9655 9.12586 63.7601 9.12586H63.7523ZM86.0466 25.9102C91.4754 25.9102 95.3169 22.4344 95.3169 16.6797V8.0693C95.2949 7.49381 95.0472 6.94934 94.6262 6.5507C94.2052 6.15206 93.6437 5.93045 93.0603 5.93277C92.477 5.93509 91.9173 6.16119 91.4995 6.56316C91.0818 6.96514 90.8386 7.5116 90.8213 8.08725C90.82 8.11105 90.82 8.13485 90.8213 8.15865V16.519C90.8213 19.8366 88.9574 21.7148 86.044 21.7148C83.1305 21.7148 81.2666 19.8366 81.2666 16.519V8.0693C81.2446 7.49381 80.9971 6.94934 80.576 6.5507C80.155 6.15206 79.5934 5.93045 79.01 5.93277C78.4267 5.93509 77.8671 6.16119 77.4494 6.56316C77.0316 6.96514 76.7883 7.5116 76.771 8.08725C76.771 8.11277 76.771 8.13824 76.771 8.16376V16.6797C76.7839 22.4344 80.6307 25.9204 86.0543 25.9204L86.0466 25.9102ZM116.913 21.8577L116.89 21.8857C116.808 22.0141 116.712 22.1332 116.603 22.2405C115.623 23.3971 114.397 24.3258 113.012 24.9602C111.626 25.5946 110.116 25.919 108.589 25.9102C102.679 25.9102 98.1864 21.355 98.1864 15.6002C98.1864 9.80471 102.679 5.29029 108.387 5.29029C114.258 5.29029 118.428 9.6056 118.428 15.4803C118.425 15.6807 118.381 15.8785 118.299 16.062C118.217 16.2455 118.099 16.4111 117.951 16.5488C117.804 16.6865 117.629 16.7936 117.439 16.8639C117.249 16.9342 117.046 16.9661 116.843 16.9579H102.638C103.155 20.1963 105.433 22.0338 108.584 22.0338C110.701 22.0338 112.384 21.1534 113.395 19.7523C113.434 19.6911 113.475 19.6298 113.519 19.5736L113.534 19.5507C113.856 19.149 114.32 18.8823 114.833 18.8042C115.345 18.726 115.869 18.8422 116.299 19.1293C116.728 19.4164 117.032 19.8532 117.149 20.3522C117.266 20.8511 117.187 21.3753 116.929 21.8194C116.92 21.8304 116.913 21.8424 116.908 21.8551L116.913 21.8577ZM113.85 13.722C113.485 11.045 111.381 9.12847 108.344 9.12847C105.552 9.12847 103.406 10.846 102.757 13.722H113.85Z" fill="#101828"/>
<path d="M20.4476 30.628C19.933 30.6287 19.4353 30.4469 19.0452 30.1156C18.6551 29.7843 18.3986 29.3257 18.3224 28.8233C18.2463 28.3209 18.3557 27.8082 18.6304 27.3787C18.9052 26.9492 19.3272 26.6316 19.8195 26.4836C22.0653 25.802 24.0039 24.3759 25.3078 22.4463C25.6257 21.9842 26.1157 21.6648 26.6712 21.5576C27.2266 21.4505 27.8023 21.5643 28.2731 21.8743C28.7439 22.1842 29.0717 22.6653 29.185 23.2127C29.2982 23.76 29.1877 24.3293 28.8777 24.7967C27.0244 27.5382 24.2696 29.5645 21.0784 30.5335C20.8741 30.596 20.6615 30.6279 20.4476 30.628Z" fill="#262FFC"/>
<path fill-rule="evenodd" clip-rule="evenodd" d="M13.1816 21.5046C14.8822 21.5046 16.5446 21.0068 17.9586 20.0741C19.3725 19.1414 20.4746 17.8158 21.1254 16.2648C21.7761 14.7139 21.9464 13.0072 21.6146 11.3607C21.2829 9.71426 20.464 8.20196 19.2615 7.01491C18.059 5.82786 16.5269 5.01947 14.859 4.69196C13.1911 4.36445 11.4623 4.53252 9.89121 5.17494C8.3201 5.81737 6.97733 6.90529 6.03255 8.30111C5.08777 9.69694 4.58346 11.3379 4.58346 13.0167C4.58346 15.2678 5.48936 17.4268 7.10183 19.0185C8.7143 20.6103 10.9012 21.5046 13.1816 21.5046ZM13.1584 25.9833C15.761 25.9833 18.3052 25.2213 20.4691 23.7939C22.633 22.3665 24.3195 20.3377 25.3154 17.964C26.3112 15.5903 26.5717 12.9784 26.0638 10.4586C25.5558 7.93878 24.3023 5.62439 22.4619 3.80787C20.6214 1.99135 18.2765 0.754334 15.7238 0.253417C13.1712 -0.2475 10.5255 0.0101742 8.12112 0.993714C5.71678 1.97725 3.66186 3.64246 2.21631 5.77892C0.770756 7.91538 -0.000511061 10.427 2.54069e-07 12.9962C2.20709e-07 14.7019 0.340315 16.3909 1.00162 17.9667C1.66292 19.5425 2.63221 20.9744 3.85411 22.1803C5.07602 23.3863 6.52658 24.3429 8.12301 24.9954C9.71945 25.6479 11.4305 25.9836 13.1584 25.9833Z" fill="#101828"/>
</svg>
