<svg width="50" height="50" viewBox="0 0 50 50" fill="none" xmlns="http://www.w3.org/2000/svg">
<g clip-path="url(#clip0_78_2676)">
<path d="M25 4.6875C20.9826 4.6875 17.0554 5.87881 13.715 8.11077C10.3746 10.3427 7.77111 13.5151 6.23371 17.2267C4.6963 20.9384 4.29405 25.0225 5.07781 28.9628C5.86157 32.903 7.79615 36.5224 10.6369 39.3631C13.4777 42.2039 17.097 44.1384 21.0372 44.9222C24.9775 45.706 29.0616 45.3037 32.7733 43.7663C36.4849 42.2289 39.6573 39.6254 41.8892 36.285C44.1212 32.9446 45.3125 29.0174 45.3125 25C45.3058 19.6149 43.1636 14.4522 39.3557 10.6443C35.5478 6.83644 30.3852 4.69422 25 4.6875ZM21.875 31.25C21.875 31.6644 21.7104 32.0618 21.4174 32.3549C21.1243 32.6479 20.7269 32.8125 20.3125 32.8125C19.8981 32.8125 19.5007 32.6479 19.2077 32.3549C18.9146 32.0618 18.75 31.6644 18.75 31.25V18.75C18.75 18.3356 18.9146 17.9382 19.2077 17.6451C19.5007 17.3521 19.8981 17.1875 20.3125 17.1875C20.7269 17.1875 21.1243 17.3521 21.4174 17.6451C21.7104 17.9382 21.875 18.3356 21.875 18.75V31.25ZM31.25 31.25C31.25 31.6644 31.0854 32.0618 30.7924 32.3549C30.4993 32.6479 30.1019 32.8125 29.6875 32.8125C29.2731 32.8125 28.8757 32.6479 28.5827 32.3549C28.2896 32.0618 28.125 31.6644 28.125 31.25V18.75C28.125 18.3356 28.2896 17.9382 28.5827 17.6451C28.8757 17.3521 29.2731 17.1875 29.6875 17.1875C30.1019 17.1875 30.4993 17.3521 30.7924 17.6451C31.0854 17.9382 31.25 18.3356 31.25 18.75V31.25Z" fill="#3E50DE"/>
</g>
<defs>
<clipPath id="clip0_78_2676">
<rect width="50" height="50" fill="white"/>
</clipPath>
</defs>
</svg>
