<svg width="12" height="10" viewBox="0 0 12 10" fill="none" xmlns="http://www.w3.org/2000/svg">
<path d="M11.2071 1.43623C10.7881 1.62246 10.3458 1.73885 9.88023 1.80869C10.3458 1.52934 10.7183 1.08704 10.8812 0.551625C10.4389 0.807694 9.95006 0.993926 9.41465 1.11032C8.99562 0.66802 8.39037 0.388672 7.73856 0.388672C6.48149 0.388672 5.45721 1.41295 5.45721 2.67002C5.45721 2.85625 5.48049 3.0192 5.52705 3.18215C3.64145 3.08904 1.94208 2.18116 0.801411 0.784415C0.615178 1.1336 0.498783 1.50606 0.498783 1.92509C0.498783 2.71657 0.894527 3.41494 1.52306 3.83397C1.1506 3.81069 0.801411 3.71757 0.475504 3.55462V3.5779C0.475504 4.69529 1.26699 5.62645 2.31455 5.83596C2.12831 5.88252 1.9188 5.9058 1.70929 5.9058C1.56962 5.9058 1.40666 5.88252 1.26699 5.85924C1.56962 6.76712 2.40766 7.44221 3.40866 7.44221C2.61717 8.04747 1.63945 8.41993 0.56862 8.41993C0.382388 8.41993 0.196156 8.41993 0.0332031 8.39665C1.05748 9.04847 2.24471 9.42093 3.54833 9.42093C7.76184 9.42093 10.0665 5.92908 10.0665 2.90281C10.0665 2.80969 10.0665 2.69329 10.0665 2.60018C10.5088 2.29755 10.9045 1.90181 11.2071 1.43623Z" fill="#131313"/>
</svg>
