<svg width="14" height="15" viewBox="0 0 14 15" fill="none" xmlns="http://www.w3.org/2000/svg">
<path d="M7.00076 1.90033C8.80947 1.90033 9.02366 1.90711 9.73818 1.93969C10.1678 1.94494 10.5933 2.02383 10.9962 2.17291C11.2884 2.2856 11.5538 2.45823 11.7753 2.67969C11.9967 2.90114 12.1694 3.16651 12.282 3.45872C12.4311 3.86166 12.51 4.28718 12.5153 4.71678C12.5475 5.4313 12.5546 5.64549 12.5546 7.4542C12.5546 9.26291 12.5479 9.47711 12.5153 10.1916C12.51 10.6212 12.4311 11.0467 12.282 11.4497C12.1694 11.7419 11.9967 12.0073 11.7753 12.2287C11.5538 12.4502 11.2884 12.6228 10.9962 12.7355C10.5933 12.8846 10.1678 12.9635 9.73818 12.9687C9.02398 13.001 8.80979 13.0081 7.00076 13.0081C5.19172 13.0081 4.97753 13.0013 4.26334 12.9687C3.83373 12.9635 3.40821 12.8846 3.00527 12.7355C2.71307 12.6228 2.44769 12.4502 2.22624 12.2287C2.00479 12.0073 1.83216 11.7419 1.71947 11.4497C1.57038 11.0467 1.4915 10.6212 1.48624 10.1916C1.45398 9.47711 1.44689 9.26291 1.44689 7.4542C1.44689 5.64549 1.45366 5.4313 1.48624 4.71678C1.4915 4.28718 1.57038 3.86166 1.71947 3.45872C1.83216 3.16651 2.00479 2.90114 2.22624 2.67969C2.44769 2.45823 2.71307 2.2856 3.00527 2.17291C3.40821 2.02383 3.83373 1.94494 4.26334 1.93969C4.97785 1.90743 5.19205 1.90033 7.00076 1.90033ZM7.00076 0.679688C5.16205 0.679688 4.93043 0.687429 4.20785 0.720333C3.64561 0.731516 3.08934 0.837972 2.56269 1.03517C2.11092 1.20539 1.70172 1.47213 1.36366 1.81678C1.01869 2.15497 0.751722 2.5644 0.581401 3.01646C0.384201 3.54311 0.277746 4.09938 0.266563 4.66162C0.234304 5.38356 0.226562 5.61517 0.226562 7.45388C0.226562 9.29259 0.234304 9.5242 0.267208 10.2468C0.278391 10.809 0.384847 11.3653 0.582046 11.8919C0.752178 12.344 1.01892 12.7534 1.36366 13.0916C1.70191 13.4364 2.11133 13.7031 2.56334 13.8732C3.08998 14.0704 3.64626 14.1769 4.2085 14.1881C4.93108 14.2203 5.16172 14.2287 7.0014 14.2287C8.84108 14.2287 9.07172 14.221 9.7943 14.1881C10.3565 14.1769 10.9128 14.0704 11.4395 13.8732C11.8893 13.6989 12.2978 13.4325 12.6389 13.0912C12.98 12.75 13.246 12.3413 13.4201 11.8913C13.6173 11.3647 13.7238 10.8084 13.735 10.2461C13.7672 9.5242 13.775 9.29259 13.775 7.45388C13.775 5.61517 13.7672 5.38356 13.7343 4.66098C13.7231 4.09873 13.6167 3.54246 13.4195 3.01582C13.2493 2.56381 12.9826 2.15439 12.6379 1.81614C12.2996 1.4714 11.8902 1.20466 11.4382 1.03453C10.9115 0.837326 10.3553 0.730871 9.79301 0.719688C9.07108 0.687429 8.83947 0.679688 7.00076 0.679688Z" fill="#131313"/>
<path d="M7.00215 3.97656C6.31413 3.97656 5.64155 4.18059 5.06948 4.56283C4.49741 4.94508 4.05154 5.48838 3.78824 6.12403C3.52494 6.75968 3.45605 7.45913 3.59028 8.13393C3.72451 8.80874 4.05582 9.42858 4.54233 9.91509C5.02884 10.4016 5.64868 10.7329 6.32349 10.8671C6.99829 11.0014 7.69774 10.9325 8.33339 10.6692C8.96904 10.4059 9.51234 9.96001 9.89459 9.38794C10.2768 8.81587 10.4809 8.1433 10.4809 7.45527C10.4809 6.53266 10.1144 5.64784 9.46197 4.99545C8.80958 4.34307 7.92476 3.97656 7.00215 3.97656ZM7.00215 9.71334C6.55555 9.71334 6.11897 9.5809 5.74764 9.33278C5.3763 9.08466 5.08688 8.732 4.91597 8.3194C4.74506 7.90679 4.70034 7.45277 4.78747 7.01475C4.8746 6.57672 5.08966 6.17438 5.40546 5.85858C5.72125 5.54278 6.1236 5.32772 6.56162 5.2406C6.99964 5.15347 7.45367 5.19818 7.86627 5.36909C8.27888 5.54 8.63154 5.82942 8.87966 6.20076C9.12778 6.5721 9.26021 7.00867 9.26021 7.45527C9.26021 8.05415 9.02231 8.6285 8.59884 9.05196C8.17537 9.47543 7.60102 9.71334 7.00215 9.71334Z" fill="#131313"/>
<path d="M10.6176 4.6512C11.0665 4.6512 11.4305 4.28725 11.4305 3.83829C11.4305 3.38934 11.0665 3.02539 10.6176 3.02539C10.1686 3.02539 9.80469 3.38934 9.80469 3.83829C9.80469 4.28725 10.1686 4.6512 10.6176 4.6512Z" fill="#131313"/>
</svg>
