<svg width="12" height="13" viewBox="0 0 12 13" fill="none" xmlns="http://www.w3.org/2000/svg">
<path d="M2.67626 4.20312H0V12.4532H2.67626V4.20312Z" fill="#131313"/>
<path d="M9.96627 4.29988C9.93785 4.29097 9.91092 4.28124 9.8811 4.27284C9.84504 4.26464 9.80925 4.2578 9.77256 4.25195C9.63057 4.22339 9.47475 4.20315 9.29236 4.20315C7.73221 4.20315 6.74244 5.34101 6.41652 5.78043V4.20312H3.74023V12.4532H6.4165V7.95317C6.4165 7.95317 8.43889 5.12864 9.29233 7.20305V12.4532H11.9679V6.88593C11.9679 5.63934 11.1159 4.60062 9.96627 4.29988Z" fill="#131313"/>
<path d="M2.61796 1.7656C2.61796 2.49059 2.0318 3.07813 1.30899 3.07813C0.586132 3.07813 0 2.49057 0 1.7656C0 1.04076 0.586132 0.453125 1.30899 0.453125C2.0318 0.453125 2.61796 1.04076 2.61796 1.7656Z" fill="#131313"/>
</svg>
